<?xml version="1.0" encoding="utf-8" standalone="no"?>
<!DOCTYPE svg PUBLIC "-//W3C//DTD SVG 1.1//EN"
  "http://www.w3.org/Graphics/SVG/1.1/DTD/svg11.dtd">
<svg xmlns:xlink="http://www.w3.org/1999/xlink" width="576pt" height="576pt" viewBox="0 0 576 576" xmlns="http://www.w3.org/2000/svg" version="1.1">
 <metadata>
  <rdf:RDF xmlns:dc="http://purl.org/dc/elements/1.1/" xmlns:cc="http://creativecommons.org/ns#" xmlns:rdf="http://www.w3.org/1999/02/22-rdf-syntax-ns#">
   <cc:Work>
    <dc:type rdf:resource="http://purl.org/dc/dcmitype/StillImage"/>
    <dc:date>2025-05-06T11:16:15.305665</dc:date>
    <dc:format>image/svg+xml</dc:format>
    <dc:creator>
     <cc:Agent>
      <dc:title>Matplotlib v3.7.1, https://matplotlib.org/</dc:title>
     </cc:Agent>
    </dc:creator>
   </cc:Work>
  </rdf:RDF>
 </metadata>
 <defs>
  <style type="text/css">*{stroke-linejoin: round; stroke-linecap: butt}</style>
 </defs>
 <g id="figure_1">
  <g id="patch_1">
   <path d="M 0 576 
L 576 576 
L 576 0 
L 0 0 
z
" style="fill: #ffffff"/>
  </g>
  <g id="axes_1">
   <g id="patch_2">
    <path d="M 288 86.4 
L 135.264935 149.664935 
L 72 302.4 
L 135.264935 455.135065 
L 288 518.4 
L 440.735065 455.135065 
L 504 302.4 
L 440.735065 149.664935 
z
" style="fill: #ffffff"/>
   </g>
   <g id="patch_3">
    <path d="M 288 196.56 
L 217.283665 231.683665 
L 245.448 302.4 
L 261.118629 329.281371 
L 288 483.408 
L 412.784548 427.184548 
L 357.336 302.4 
L 330.460348 259.939652 
z
" clip-path="url(#pa4703080ce)" style="fill: #1f77b4; opacity: 0.25"/>
   </g>
   <g id="patch_4">
    <path d="M 288 106.272 
L 150.232972 164.632972 
L 161.208 302.4 
L 202.315629 388.084371 
L 288 517.104 
L 439.360449 453.760449 
L 446.976 302.4 
L 397.969247 192.430753 
z
" clip-path="url(#pa4703080ce)" style="fill: #ff7f0e; opacity: 0.25"/>
   </g>
   <g id="patch_5">
    <path d="M 288 89.424 
L 137.097756 151.497756 
L 94.032 302.4 
L 152.065792 438.334208 
L 288 518.4 
L 440.735065 455.135065 
L 490.824 302.4 
L 430.960021 159.439979 
z
" clip-path="url(#pa4703080ce)" style="fill: #2ca02c; opacity: 0.25"/>
   </g>
   <g id="matplotlib.axis_1">
    <g id="xtick_1">
     <g id="line2d_1">
      <path d="M 288 302.4 
L 288 275.4 
L 288 248.4 
L 288 221.4 
L 288 194.4 
L 288 167.4 
L 288 140.4 
L 288 113.4 
L 288 86.4 
" clip-path="url(#pa4703080ce)" style="fill: none; stroke: #b0b0b0; stroke-width: 0.8; stroke-linecap: square"/>
     </g>
     <g id="text_1">
      <!-- Sequence →  -->
      <g transform="translate(243.154063 38.986187) scale(0.14 -0.14)">
       <defs>
        <path id="DejaVuSans-53" d="M 3425 4513 
L 3425 3897 
Q 3066 4069 2747 4153 
Q 2428 4238 2131 4238 
Q 1616 4238 1336 4038 
Q 1056 3838 1056 3469 
Q 1056 3159 1242 3001 
Q 1428 2844 1947 2747 
L 2328 2669 
Q 3034 2534 3370 2195 
Q 3706 1856 3706 1288 
Q 3706 609 3251 259 
Q 2797 -91 1919 -91 
Q 1588 -91 1214 -16 
Q 841 59 441 206 
L 441 856 
Q 825 641 1194 531 
Q 1563 422 1919 422 
Q 2459 422 2753 634 
Q 3047 847 3047 1241 
Q 3047 1584 2836 1778 
Q 2625 1972 2144 2069 
L 1759 2144 
Q 1053 2284 737 2584 
Q 422 2884 422 3419 
Q 422 4038 858 4394 
Q 1294 4750 2059 4750 
Q 2388 4750 2728 4690 
Q 3069 4631 3425 4513 
z
" transform="scale(0.015625)"/>
        <path id="DejaVuSans-65" d="M 3597 1894 
L 3597 1613 
L 953 1613 
Q 991 1019 1311 708 
Q 1631 397 2203 397 
Q 2534 397 2845 478 
Q 3156 559 3463 722 
L 3463 178 
Q 3153 47 2828 -22 
Q 2503 -91 2169 -91 
Q 1331 -91 842 396 
Q 353 884 353 1716 
Q 353 2575 817 3079 
Q 1281 3584 2069 3584 
Q 2775 3584 3186 3129 
Q 3597 2675 3597 1894 
z
M 3022 2063 
Q 3016 2534 2758 2815 
Q 2500 3097 2075 3097 
Q 1594 3097 1305 2825 
Q 1016 2553 972 2059 
L 3022 2063 
z
" transform="scale(0.015625)"/>
        <path id="DejaVuSans-71" d="M 947 1747 
Q 947 1113 1208 752 
Q 1469 391 1925 391 
Q 2381 391 2643 752 
Q 2906 1113 2906 1747 
Q 2906 2381 2643 2742 
Q 2381 3103 1925 3103 
Q 1469 3103 1208 2742 
Q 947 2381 947 1747 
z
M 2906 525 
Q 2725 213 2448 61 
Q 2172 -91 1784 -91 
Q 1150 -91 751 415 
Q 353 922 353 1747 
Q 353 2572 751 3078 
Q 1150 3584 1784 3584 
Q 2172 3584 2448 3432 
Q 2725 3281 2906 2969 
L 2906 3500 
L 3481 3500 
L 3481 -1331 
L 2906 -1331 
L 2906 525 
z
" transform="scale(0.015625)"/>
        <path id="DejaVuSans-75" d="M 544 1381 
L 544 3500 
L 1119 3500 
L 1119 1403 
Q 1119 906 1312 657 
Q 1506 409 1894 409 
Q 2359 409 2629 706 
Q 2900 1003 2900 1516 
L 2900 3500 
L 3475 3500 
L 3475 0 
L 2900 0 
L 2900 538 
Q 2691 219 2414 64 
Q 2138 -91 1772 -91 
Q 1169 -91 856 284 
Q 544 659 544 1381 
z
M 1991 3584 
L 1991 3584 
z
" transform="scale(0.015625)"/>
        <path id="DejaVuSans-6e" d="M 3513 2113 
L 3513 0 
L 2938 0 
L 2938 2094 
Q 2938 2591 2744 2837 
Q 2550 3084 2163 3084 
Q 1697 3084 1428 2787 
Q 1159 2491 1159 1978 
L 1159 0 
L 581 0 
L 581 3500 
L 1159 3500 
L 1159 2956 
Q 1366 3272 1645 3428 
Q 1925 3584 2291 3584 
Q 2894 3584 3203 3211 
Q 3513 2838 3513 2113 
z
" transform="scale(0.015625)"/>
        <path id="DejaVuSans-63" d="M 3122 3366 
L 3122 2828 
Q 2878 2963 2633 3030 
Q 2388 3097 2138 3097 
Q 1578 3097 1268 2742 
Q 959 2388 959 1747 
Q 959 1106 1268 751 
Q 1578 397 2138 397 
Q 2388 397 2633 464 
Q 2878 531 3122 666 
L 3122 134 
Q 2881 22 2623 -34 
Q 2366 -91 2075 -91 
Q 1284 -91 818 406 
Q 353 903 353 1747 
Q 353 2603 823 3093 
Q 1294 3584 2113 3584 
Q 2378 3584 2631 3529 
Q 2884 3475 3122 3366 
z
" transform="scale(0.015625)"/>
        <path id="DejaVuSans-20" transform="scale(0.015625)"/>
        <path id="DejaVuSans-2192" d="M 5050 2147 
L 5050 1866 
L 3822 638 
L 3447 1013 
L 4175 1741 
L 366 1741 
L 366 2272 
L 4175 2272 
L 3447 3000 
L 3822 3375 
L 5050 2147 
z
" transform="scale(0.015625)"/>
       </defs>
       <use xlink:href="#DejaVuSans-53"/>
       <use xlink:href="#DejaVuSans-65" x="63.476562"/>
       <use xlink:href="#DejaVuSans-71" x="125"/>
       <use xlink:href="#DejaVuSans-75" x="188.476562"/>
       <use xlink:href="#DejaVuSans-65" x="251.855469"/>
       <use xlink:href="#DejaVuSans-6e" x="313.378906"/>
       <use xlink:href="#DejaVuSans-63" x="376.757812"/>
       <use xlink:href="#DejaVuSans-65" x="431.738281"/>
       <use xlink:href="#DejaVuSans-20" x="493.261719"/>
       <use xlink:href="#DejaVuSans-2192" x="525.048828"/>
       <use xlink:href="#DejaVuSans-20" x="608.837891"/>
      </g>
      <!--  Structure (Token)  -->
      <g transform="translate(223.393281 54.663125) scale(0.14 -0.14)">
       <defs>
        <path id="DejaVuSans-74" d="M 1172 4494 
L 1172 3500 
L 2356 3500 
L 2356 3053 
L 1172 3053 
L 1172 1153 
Q 1172 725 1289 603 
Q 1406 481 1766 481 
L 2356 481 
L 2356 0 
L 1766 0 
Q 1100 0 847 248 
Q 594 497 594 1153 
L 594 3053 
L 172 3053 
L 172 3500 
L 594 3500 
L 594 4494 
L 1172 4494 
z
" transform="scale(0.015625)"/>
        <path id="DejaVuSans-72" d="M 2631 2963 
Q 2534 3019 2420 3045 
Q 2306 3072 2169 3072 
Q 1681 3072 1420 2755 
Q 1159 2438 1159 1844 
L 1159 0 
L 581 0 
L 581 3500 
L 1159 3500 
L 1159 2956 
Q 1341 3275 1631 3429 
Q 1922 3584 2338 3584 
Q 2397 3584 2469 3576 
Q 2541 3569 2628 3553 
L 2631 2963 
z
" transform="scale(0.015625)"/>
        <path id="DejaVuSans-28" d="M 1984 4856 
Q 1566 4138 1362 3434 
Q 1159 2731 1159 2009 
Q 1159 1288 1364 580 
Q 1569 -128 1984 -844 
L 1484 -844 
Q 1016 -109 783 600 
Q 550 1309 550 2009 
Q 550 2706 781 3412 
Q 1013 4119 1484 4856 
L 1984 4856 
z
" transform="scale(0.015625)"/>
        <path id="DejaVuSans-54" d="M -19 4666 
L 3928 4666 
L 3928 4134 
L 2272 4134 
L 2272 0 
L 1638 0 
L 1638 4134 
L -19 4134 
L -19 4666 
z
" transform="scale(0.015625)"/>
        <path id="DejaVuSans-6f" d="M 1959 3097 
Q 1497 3097 1228 2736 
Q 959 2375 959 1747 
Q 959 1119 1226 758 
Q 1494 397 1959 397 
Q 2419 397 2687 759 
Q 2956 1122 2956 1747 
Q 2956 2369 2687 2733 
Q 2419 3097 1959 3097 
z
M 1959 3584 
Q 2709 3584 3137 3096 
Q 3566 2609 3566 1747 
Q 3566 888 3137 398 
Q 2709 -91 1959 -91 
Q 1206 -91 779 398 
Q 353 888 353 1747 
Q 353 2609 779 3096 
Q 1206 3584 1959 3584 
z
" transform="scale(0.015625)"/>
        <path id="DejaVuSans-6b" d="M 581 4863 
L 1159 4863 
L 1159 1991 
L 2875 3500 
L 3609 3500 
L 1753 1863 
L 3688 0 
L 2938 0 
L 1159 1709 
L 1159 0 
L 581 0 
L 581 4863 
z
" transform="scale(0.015625)"/>
        <path id="DejaVuSans-29" d="M 513 4856 
L 1013 4856 
Q 1481 4119 1714 3412 
Q 1947 2706 1947 2009 
Q 1947 1309 1714 600 
Q 1481 -109 1013 -844 
L 513 -844 
Q 928 -128 1133 580 
Q 1338 1288 1338 2009 
Q 1338 2731 1133 3434 
Q 928 4138 513 4856 
z
" transform="scale(0.015625)"/>
       </defs>
       <use xlink:href="#DejaVuSans-20"/>
       <use xlink:href="#DejaVuSans-53" x="31.787109"/>
       <use xlink:href="#DejaVuSans-74" x="95.263672"/>
       <use xlink:href="#DejaVuSans-72" x="134.472656"/>
       <use xlink:href="#DejaVuSans-75" x="175.585938"/>
       <use xlink:href="#DejaVuSans-63" x="238.964844"/>
       <use xlink:href="#DejaVuSans-74" x="293.945312"/>
       <use xlink:href="#DejaVuSans-75" x="333.154297"/>
       <use xlink:href="#DejaVuSans-72" x="396.533203"/>
       <use xlink:href="#DejaVuSans-65" x="435.396484"/>
       <use xlink:href="#DejaVuSans-20" x="496.919922"/>
       <use xlink:href="#DejaVuSans-28" x="528.707031"/>
       <use xlink:href="#DejaVuSans-54" x="567.720703"/>
       <use xlink:href="#DejaVuSans-6f" x="611.804688"/>
       <use xlink:href="#DejaVuSans-6b" x="672.986328"/>
       <use xlink:href="#DejaVuSans-65" x="727.271484"/>
       <use xlink:href="#DejaVuSans-6e" x="788.794922"/>
       <use xlink:href="#DejaVuSans-29" x="852.173828"/>
       <use xlink:href="#DejaVuSans-20" x="891.1875"/>
      </g>
      <!--  (MR = 2) -->
      <g transform="translate(254.640625 70.340062) scale(0.14 -0.14)">
       <defs>
        <path id="DejaVuSans-4d" d="M 628 4666 
L 1569 4666 
L 2759 1491 
L 3956 4666 
L 4897 4666 
L 4897 0 
L 4281 0 
L 4281 4097 
L 3078 897 
L 2444 897 
L 1241 4097 
L 1241 0 
L 628 0 
L 628 4666 
z
" transform="scale(0.015625)"/>
        <path id="DejaVuSans-52" d="M 2841 2188 
Q 3044 2119 3236 1894 
Q 3428 1669 3622 1275 
L 4263 0 
L 3584 0 
L 2988 1197 
Q 2756 1666 2539 1819 
Q 2322 1972 1947 1972 
L 1259 1972 
L 1259 0 
L 628 0 
L 628 4666 
L 2053 4666 
Q 2853 4666 3247 4331 
Q 3641 3997 3641 3322 
Q 3641 2881 3436 2590 
Q 3231 2300 2841 2188 
z
M 1259 4147 
L 1259 2491 
L 2053 2491 
Q 2509 2491 2742 2702 
Q 2975 2913 2975 3322 
Q 2975 3731 2742 3939 
Q 2509 4147 2053 4147 
L 1259 4147 
z
" transform="scale(0.015625)"/>
        <path id="DejaVuSans-3d" d="M 678 2906 
L 4684 2906 
L 4684 2381 
L 678 2381 
L 678 2906 
z
M 678 1631 
L 4684 1631 
L 4684 1100 
L 678 1100 
L 678 1631 
z
" transform="scale(0.015625)"/>
        <path id="DejaVuSans-32" d="M 1228 531 
L 3431 531 
L 3431 0 
L 469 0 
L 469 531 
Q 828 903 1448 1529 
Q 2069 2156 2228 2338 
Q 2531 2678 2651 2914 
Q 2772 3150 2772 3378 
Q 2772 3750 2511 3984 
Q 2250 4219 1831 4219 
Q 1534 4219 1204 4116 
Q 875 4013 500 3803 
L 500 4441 
Q 881 4594 1212 4672 
Q 1544 4750 1819 4750 
Q 2544 4750 2975 4387 
Q 3406 4025 3406 3419 
Q 3406 3131 3298 2873 
Q 3191 2616 2906 2266 
Q 2828 2175 2409 1742 
Q 1991 1309 1228 531 
z
" transform="scale(0.015625)"/>
       </defs>
       <use xlink:href="#DejaVuSans-20"/>
       <use xlink:href="#DejaVuSans-28" x="31.787109"/>
       <use xlink:href="#DejaVuSans-4d" x="70.800781"/>
       <use xlink:href="#DejaVuSans-52" x="157.080078"/>
       <use xlink:href="#DejaVuSans-20" x="226.5625"/>
       <use xlink:href="#DejaVuSans-3d" x="258.349609"/>
       <use xlink:href="#DejaVuSans-20" x="342.138672"/>
       <use xlink:href="#DejaVuSans-32" x="373.925781"/>
       <use xlink:href="#DejaVuSans-29" x="437.548828"/>
      </g>
     </g>
    </g>
    <g id="xtick_2">
     <g id="line2d_2">
      <path d="M 288 302.4 
L 268.908117 283.308117 
L 249.816234 264.216234 
L 230.724351 245.124351 
L 211.632468 226.032468 
L 192.540585 206.940585 
L 173.448701 187.848701 
L 154.356818 168.756818 
L 135.264935 149.664935 
" clip-path="url(#pa4703080ce)" style="fill: none; stroke: #b0b0b0; stroke-width: 0.8; stroke-linecap: square"/>
     </g>
     <g id="text_2">
      <!-- Structure (Token)  -->
      <g transform="translate(47.709903 112.678121) scale(0.14 -0.14)">
       <use xlink:href="#DejaVuSans-53"/>
       <use xlink:href="#DejaVuSans-74" x="63.476562"/>
       <use xlink:href="#DejaVuSans-72" x="102.685547"/>
       <use xlink:href="#DejaVuSans-75" x="143.798828"/>
       <use xlink:href="#DejaVuSans-63" x="207.177734"/>
       <use xlink:href="#DejaVuSans-74" x="262.158203"/>
       <use xlink:href="#DejaVuSans-75" x="301.367188"/>
       <use xlink:href="#DejaVuSans-72" x="364.746094"/>
       <use xlink:href="#DejaVuSans-65" x="403.609375"/>
       <use xlink:href="#DejaVuSans-20" x="465.132812"/>
       <use xlink:href="#DejaVuSans-28" x="496.919922"/>
       <use xlink:href="#DejaVuSans-54" x="535.933594"/>
       <use xlink:href="#DejaVuSans-6f" x="580.017578"/>
       <use xlink:href="#DejaVuSans-6b" x="641.199219"/>
       <use xlink:href="#DejaVuSans-65" x="695.484375"/>
       <use xlink:href="#DejaVuSans-6e" x="757.007812"/>
       <use xlink:href="#DejaVuSans-29" x="820.386719"/>
       <use xlink:href="#DejaVuSans-20" x="859.400391"/>
      </g>
      <!--  → Sequence  -->
      <g transform="translate(63.021309 128.355059) scale(0.14 -0.14)">
       <use xlink:href="#DejaVuSans-20"/>
       <use xlink:href="#DejaVuSans-2192" x="31.787109"/>
       <use xlink:href="#DejaVuSans-20" x="115.576172"/>
       <use xlink:href="#DejaVuSans-53" x="147.363281"/>
       <use xlink:href="#DejaVuSans-65" x="210.839844"/>
       <use xlink:href="#DejaVuSans-71" x="272.363281"/>
       <use xlink:href="#DejaVuSans-75" x="335.839844"/>
       <use xlink:href="#DejaVuSans-65" x="399.21875"/>
       <use xlink:href="#DejaVuSans-6e" x="460.742188"/>
       <use xlink:href="#DejaVuSans-63" x="524.121094"/>
       <use xlink:href="#DejaVuSans-65" x="579.101562"/>
       <use xlink:href="#DejaVuSans-20" x="640.625"/>
      </g>
      <!--  (MR = 2) -->
      <g transform="translate(76.732559 144.031996) scale(0.14 -0.14)">
       <use xlink:href="#DejaVuSans-20"/>
       <use xlink:href="#DejaVuSans-28" x="31.787109"/>
       <use xlink:href="#DejaVuSans-4d" x="70.800781"/>
       <use xlink:href="#DejaVuSans-52" x="157.080078"/>
       <use xlink:href="#DejaVuSans-20" x="226.5625"/>
       <use xlink:href="#DejaVuSans-3d" x="258.349609"/>
       <use xlink:href="#DejaVuSans-20" x="342.138672"/>
       <use xlink:href="#DejaVuSans-32" x="373.925781"/>
       <use xlink:href="#DejaVuSans-29" x="437.548828"/>
      </g>
     </g>
    </g>
    <g id="xtick_3">
     <g id="line2d_3">
      <path d="M 288 302.4 
L 261 302.4 
L 234 302.4 
L 207 302.4 
L 180 302.4 
L 153 302.4 
L 126 302.4 
L 99 302.4 
L 72 302.4 
" clip-path="url(#pa4703080ce)" style="fill: none; stroke: #b0b0b0; stroke-width: 0.8; stroke-linecap: square"/>
     </g>
     <g id="text_3">
      <!-- Sequence  -->
      <g transform="translate(-0.355469 290.586187) scale(0.14 -0.14)">
       <use xlink:href="#DejaVuSans-53"/>
       <use xlink:href="#DejaVuSans-65" x="63.476562"/>
       <use xlink:href="#DejaVuSans-71" x="125"/>
       <use xlink:href="#DejaVuSans-75" x="188.476562"/>
       <use xlink:href="#DejaVuSans-65" x="251.855469"/>
       <use xlink:href="#DejaVuSans-6e" x="313.378906"/>
       <use xlink:href="#DejaVuSans-63" x="376.757812"/>
       <use xlink:href="#DejaVuSans-65" x="431.738281"/>
       <use xlink:href="#DejaVuSans-20" x="493.261719"/>
      </g>
      <!--  → Text  -->
      <g transform="translate(9.702656 306.263125) scale(0.14 -0.14)">
       <defs>
        <path id="DejaVuSans-78" d="M 3513 3500 
L 2247 1797 
L 3578 0 
L 2900 0 
L 1881 1375 
L 863 0 
L 184 0 
L 1544 1831 
L 300 3500 
L 978 3500 
L 1906 2253 
L 2834 3500 
L 3513 3500 
z
" transform="scale(0.015625)"/>
       </defs>
       <use xlink:href="#DejaVuSans-20"/>
       <use xlink:href="#DejaVuSans-2192" x="31.787109"/>
       <use xlink:href="#DejaVuSans-20" x="115.576172"/>
       <use xlink:href="#DejaVuSans-54" x="147.363281"/>
       <use xlink:href="#DejaVuSans-65" x="191.447266"/>
       <use xlink:href="#DejaVuSans-78" x="251.220703"/>
       <use xlink:href="#DejaVuSans-74" x="310.400391"/>
       <use xlink:href="#DejaVuSans-20" x="349.609375"/>
      </g>
      <!--  (MR = 7) -->
      <g transform="translate(3.040625 321.940062) scale(0.14 -0.14)">
       <defs>
        <path id="DejaVuSans-37" d="M 525 4666 
L 3525 4666 
L 3525 4397 
L 1831 0 
L 1172 0 
L 2766 4134 
L 525 4134 
L 525 4666 
z
" transform="scale(0.015625)"/>
       </defs>
       <use xlink:href="#DejaVuSans-20"/>
       <use xlink:href="#DejaVuSans-28" x="31.787109"/>
       <use xlink:href="#DejaVuSans-4d" x="70.800781"/>
       <use xlink:href="#DejaVuSans-52" x="157.080078"/>
       <use xlink:href="#DejaVuSans-20" x="226.5625"/>
       <use xlink:href="#DejaVuSans-3d" x="258.349609"/>
       <use xlink:href="#DejaVuSans-20" x="342.138672"/>
       <use xlink:href="#DejaVuSans-37" x="373.925781"/>
       <use xlink:href="#DejaVuSans-29" x="437.548828"/>
      </g>
     </g>
    </g>
    <g id="xtick_4">
     <g id="line2d_4">
      <path d="M 288 302.4 
L 268.908117 321.491883 
L 249.816234 340.583766 
L 230.724351 359.675649 
L 211.632468 378.767532 
L 192.540585 397.859415 
L 173.448701 416.951299 
L 154.356818 436.043182 
L 135.264935 455.135065 
" clip-path="url(#pa4703080ce)" style="fill: none; stroke: #b0b0b0; stroke-width: 0.8; stroke-linecap: square"/>
     </g>
     <g id="text_4">
      <!-- Text →  -->
      <g transform="translate(85.619278 468.494254) scale(0.14 -0.14)">
       <use xlink:href="#DejaVuSans-54"/>
       <use xlink:href="#DejaVuSans-65" x="44.083984"/>
       <use xlink:href="#DejaVuSans-78" x="103.857422"/>
       <use xlink:href="#DejaVuSans-74" x="163.037109"/>
       <use xlink:href="#DejaVuSans-20" x="202.246094"/>
       <use xlink:href="#DejaVuSans-2192" x="234.033203"/>
       <use xlink:href="#DejaVuSans-20" x="317.822266"/>
      </g>
      <!--  Sequence  -->
      <g transform="translate(71.111778 484.171191) scale(0.14 -0.14)">
       <use xlink:href="#DejaVuSans-20"/>
       <use xlink:href="#DejaVuSans-53" x="31.787109"/>
       <use xlink:href="#DejaVuSans-65" x="95.263672"/>
       <use xlink:href="#DejaVuSans-71" x="156.787109"/>
       <use xlink:href="#DejaVuSans-75" x="220.263672"/>
       <use xlink:href="#DejaVuSans-65" x="283.642578"/>
       <use xlink:href="#DejaVuSans-6e" x="345.166016"/>
       <use xlink:href="#DejaVuSans-63" x="408.544922"/>
       <use xlink:href="#DejaVuSans-65" x="463.525391"/>
       <use xlink:href="#DejaVuSans-20" x="525.048828"/>
      </g>
      <!--  (MR = 8) -->
      <g transform="translate(76.732559 499.848129) scale(0.14 -0.14)">
       <defs>
        <path id="DejaVuSans-38" d="M 2034 2216 
Q 1584 2216 1326 1975 
Q 1069 1734 1069 1313 
Q 1069 891 1326 650 
Q 1584 409 2034 409 
Q 2484 409 2743 651 
Q 3003 894 3003 1313 
Q 3003 1734 2745 1975 
Q 2488 2216 2034 2216 
z
M 1403 2484 
Q 997 2584 770 2862 
Q 544 3141 544 3541 
Q 544 4100 942 4425 
Q 1341 4750 2034 4750 
Q 2731 4750 3128 4425 
Q 3525 4100 3525 3541 
Q 3525 3141 3298 2862 
Q 3072 2584 2669 2484 
Q 3125 2378 3379 2068 
Q 3634 1759 3634 1313 
Q 3634 634 3220 271 
Q 2806 -91 2034 -91 
Q 1263 -91 848 271 
Q 434 634 434 1313 
Q 434 1759 690 2068 
Q 947 2378 1403 2484 
z
M 1172 3481 
Q 1172 3119 1398 2916 
Q 1625 2713 2034 2713 
Q 2441 2713 2670 2916 
Q 2900 3119 2900 3481 
Q 2900 3844 2670 4047 
Q 2441 4250 2034 4250 
Q 1625 4250 1398 4047 
Q 1172 3844 1172 3481 
z
" transform="scale(0.015625)"/>
       </defs>
       <use xlink:href="#DejaVuSans-20"/>
       <use xlink:href="#DejaVuSans-28" x="31.787109"/>
       <use xlink:href="#DejaVuSans-4d" x="70.800781"/>
       <use xlink:href="#DejaVuSans-52" x="157.080078"/>
       <use xlink:href="#DejaVuSans-20" x="226.5625"/>
       <use xlink:href="#DejaVuSans-3d" x="258.349609"/>
       <use xlink:href="#DejaVuSans-20" x="342.138672"/>
       <use xlink:href="#DejaVuSans-38" x="373.925781"/>
       <use xlink:href="#DejaVuSans-29" x="437.548828"/>
      </g>
     </g>
    </g>
    <g id="xtick_5">
     <g id="line2d_5">
      <path d="M 288 302.4 
L 288 329.4 
L 288 356.4 
L 288 383.4 
L 288 410.4 
L 288 437.4 
L 288 464.4 
L 288 491.4 
L 288 518.4 
" clip-path="url(#pa4703080ce)" style="fill: none; stroke: #b0b0b0; stroke-width: 0.8; stroke-linecap: square"/>
     </g>
     <g id="text_5">
      <!-- Sequence →  -->
      <g transform="translate(243.154062 542.186188) scale(0.14 -0.14)">
       <use xlink:href="#DejaVuSans-53"/>
       <use xlink:href="#DejaVuSans-65" x="63.476562"/>
       <use xlink:href="#DejaVuSans-71" x="125"/>
       <use xlink:href="#DejaVuSans-75" x="188.476562"/>
       <use xlink:href="#DejaVuSans-65" x="251.855469"/>
       <use xlink:href="#DejaVuSans-6e" x="313.378906"/>
       <use xlink:href="#DejaVuSans-63" x="376.757812"/>
       <use xlink:href="#DejaVuSans-65" x="431.738281"/>
       <use xlink:href="#DejaVuSans-20" x="493.261719"/>
       <use xlink:href="#DejaVuSans-2192" x="525.048828"/>
       <use xlink:href="#DejaVuSans-20" x="608.837891"/>
      </g>
      <!--  Structure (Graph)  -->
      <g transform="translate(221.833594 557.863125) scale(0.14 -0.14)">
       <defs>
        <path id="DejaVuSans-47" d="M 3809 666 
L 3809 1919 
L 2778 1919 
L 2778 2438 
L 4434 2438 
L 4434 434 
Q 4069 175 3628 42 
Q 3188 -91 2688 -91 
Q 1594 -91 976 548 
Q 359 1188 359 2328 
Q 359 3472 976 4111 
Q 1594 4750 2688 4750 
Q 3144 4750 3555 4637 
Q 3966 4525 4313 4306 
L 4313 3634 
Q 3963 3931 3569 4081 
Q 3175 4231 2741 4231 
Q 1884 4231 1454 3753 
Q 1025 3275 1025 2328 
Q 1025 1384 1454 906 
Q 1884 428 2741 428 
Q 3075 428 3337 486 
Q 3600 544 3809 666 
z
" transform="scale(0.015625)"/>
        <path id="DejaVuSans-61" d="M 2194 1759 
Q 1497 1759 1228 1600 
Q 959 1441 959 1056 
Q 959 750 1161 570 
Q 1363 391 1709 391 
Q 2188 391 2477 730 
Q 2766 1069 2766 1631 
L 2766 1759 
L 2194 1759 
z
M 3341 1997 
L 3341 0 
L 2766 0 
L 2766 531 
Q 2569 213 2275 61 
Q 1981 -91 1556 -91 
Q 1019 -91 701 211 
Q 384 513 384 1019 
Q 384 1609 779 1909 
Q 1175 2209 1959 2209 
L 2766 2209 
L 2766 2266 
Q 2766 2663 2505 2880 
Q 2244 3097 1772 3097 
Q 1472 3097 1187 3025 
Q 903 2953 641 2809 
L 641 3341 
Q 956 3463 1253 3523 
Q 1550 3584 1831 3584 
Q 2591 3584 2966 3190 
Q 3341 2797 3341 1997 
z
" transform="scale(0.015625)"/>
        <path id="DejaVuSans-70" d="M 1159 525 
L 1159 -1331 
L 581 -1331 
L 581 3500 
L 1159 3500 
L 1159 2969 
Q 1341 3281 1617 3432 
Q 1894 3584 2278 3584 
Q 2916 3584 3314 3078 
Q 3713 2572 3713 1747 
Q 3713 922 3314 415 
Q 2916 -91 2278 -91 
Q 1894 -91 1617 61 
Q 1341 213 1159 525 
z
M 3116 1747 
Q 3116 2381 2855 2742 
Q 2594 3103 2138 3103 
Q 1681 3103 1420 2742 
Q 1159 2381 1159 1747 
Q 1159 1113 1420 752 
Q 1681 391 2138 391 
Q 2594 391 2855 752 
Q 3116 1113 3116 1747 
z
" transform="scale(0.015625)"/>
        <path id="DejaVuSans-68" d="M 3513 2113 
L 3513 0 
L 2938 0 
L 2938 2094 
Q 2938 2591 2744 2837 
Q 2550 3084 2163 3084 
Q 1697 3084 1428 2787 
Q 1159 2491 1159 1978 
L 1159 0 
L 581 0 
L 581 4863 
L 1159 4863 
L 1159 2956 
Q 1366 3272 1645 3428 
Q 1925 3584 2291 3584 
Q 2894 3584 3203 3211 
Q 3513 2838 3513 2113 
z
" transform="scale(0.015625)"/>
       </defs>
       <use xlink:href="#DejaVuSans-20"/>
       <use xlink:href="#DejaVuSans-53" x="31.787109"/>
       <use xlink:href="#DejaVuSans-74" x="95.263672"/>
       <use xlink:href="#DejaVuSans-72" x="134.472656"/>
       <use xlink:href="#DejaVuSans-75" x="175.585938"/>
       <use xlink:href="#DejaVuSans-63" x="238.964844"/>
       <use xlink:href="#DejaVuSans-74" x="293.945312"/>
       <use xlink:href="#DejaVuSans-75" x="333.154297"/>
       <use xlink:href="#DejaVuSans-72" x="396.533203"/>
       <use xlink:href="#DejaVuSans-65" x="435.396484"/>
       <use xlink:href="#DejaVuSans-20" x="496.919922"/>
       <use xlink:href="#DejaVuSans-28" x="528.707031"/>
       <use xlink:href="#DejaVuSans-47" x="567.720703"/>
       <use xlink:href="#DejaVuSans-72" x="645.210938"/>
       <use xlink:href="#DejaVuSans-61" x="686.324219"/>
       <use xlink:href="#DejaVuSans-70" x="747.603516"/>
       <use xlink:href="#DejaVuSans-68" x="811.080078"/>
       <use xlink:href="#DejaVuSans-29" x="874.458984"/>
       <use xlink:href="#DejaVuSans-20" x="913.472656"/>
      </g>
      <!--  (MR = 1) -->
      <g transform="translate(254.640625 573.540063) scale(0.14 -0.14)">
       <defs>
        <path id="DejaVuSans-31" d="M 794 531 
L 1825 531 
L 1825 4091 
L 703 3866 
L 703 4441 
L 1819 4666 
L 2450 4666 
L 2450 531 
L 3481 531 
L 3481 0 
L 794 0 
L 794 531 
z
" transform="scale(0.015625)"/>
       </defs>
       <use xlink:href="#DejaVuSans-20"/>
       <use xlink:href="#DejaVuSans-28" x="31.787109"/>
       <use xlink:href="#DejaVuSans-4d" x="70.800781"/>
       <use xlink:href="#DejaVuSans-52" x="157.080078"/>
       <use xlink:href="#DejaVuSans-20" x="226.5625"/>
       <use xlink:href="#DejaVuSans-3d" x="258.349609"/>
       <use xlink:href="#DejaVuSans-20" x="342.138672"/>
       <use xlink:href="#DejaVuSans-31" x="373.925781"/>
       <use xlink:href="#DejaVuSans-29" x="437.548828"/>
      </g>
     </g>
    </g>
    <g id="xtick_6">
     <g id="line2d_6">
      <path d="M 288 302.4 
L 307.091883 321.491883 
L 326.183766 340.583766 
L 345.275649 359.675649 
L 364.367532 378.767532 
L 383.459415 397.859415 
L 402.551299 416.951299 
L 421.643182 436.043182 
L 440.735065 455.135065 
" clip-path="url(#pa4703080ce)" style="fill: none; stroke: #b0b0b0; stroke-width: 0.8; stroke-linecap: square"/>
     </g>
     <g id="text_6">
      <!-- Structure (Graph)  -->
      <g transform="translate(401.966347 468.494254) scale(0.14 -0.14)">
       <use xlink:href="#DejaVuSans-53"/>
       <use xlink:href="#DejaVuSans-74" x="63.476562"/>
       <use xlink:href="#DejaVuSans-72" x="102.685547"/>
       <use xlink:href="#DejaVuSans-75" x="143.798828"/>
       <use xlink:href="#DejaVuSans-63" x="207.177734"/>
       <use xlink:href="#DejaVuSans-74" x="262.158203"/>
       <use xlink:href="#DejaVuSans-75" x="301.367188"/>
       <use xlink:href="#DejaVuSans-72" x="364.746094"/>
       <use xlink:href="#DejaVuSans-65" x="403.609375"/>
       <use xlink:href="#DejaVuSans-20" x="465.132812"/>
       <use xlink:href="#DejaVuSans-28" x="496.919922"/>
       <use xlink:href="#DejaVuSans-47" x="535.933594"/>
       <use xlink:href="#DejaVuSans-72" x="613.423828"/>
       <use xlink:href="#DejaVuSans-61" x="654.537109"/>
       <use xlink:href="#DejaVuSans-70" x="715.816406"/>
       <use xlink:href="#DejaVuSans-68" x="779.292969"/>
       <use xlink:href="#DejaVuSans-29" x="842.671875"/>
       <use xlink:href="#DejaVuSans-20" x="881.685547"/>
      </g>
      <!--  → Sequence  -->
      <g transform="translate(418.837441 484.171191) scale(0.14 -0.14)">
       <use xlink:href="#DejaVuSans-20"/>
       <use xlink:href="#DejaVuSans-2192" x="31.787109"/>
       <use xlink:href="#DejaVuSans-20" x="115.576172"/>
       <use xlink:href="#DejaVuSans-53" x="147.363281"/>
       <use xlink:href="#DejaVuSans-65" x="210.839844"/>
       <use xlink:href="#DejaVuSans-71" x="272.363281"/>
       <use xlink:href="#DejaVuSans-75" x="335.839844"/>
       <use xlink:href="#DejaVuSans-65" x="399.21875"/>
       <use xlink:href="#DejaVuSans-6e" x="460.742188"/>
       <use xlink:href="#DejaVuSans-63" x="524.121094"/>
       <use xlink:href="#DejaVuSans-65" x="579.101562"/>
       <use xlink:href="#DejaVuSans-20" x="640.625"/>
      </g>
      <!--  (MR = 1) -->
      <g transform="translate(432.548691 499.848129) scale(0.14 -0.14)">
       <use xlink:href="#DejaVuSans-20"/>
       <use xlink:href="#DejaVuSans-28" x="31.787109"/>
       <use xlink:href="#DejaVuSans-4d" x="70.800781"/>
       <use xlink:href="#DejaVuSans-52" x="157.080078"/>
       <use xlink:href="#DejaVuSans-20" x="226.5625"/>
       <use xlink:href="#DejaVuSans-3d" x="258.349609"/>
       <use xlink:href="#DejaVuSans-20" x="342.138672"/>
       <use xlink:href="#DejaVuSans-31" x="373.925781"/>
       <use xlink:href="#DejaVuSans-29" x="437.548828"/>
      </g>
     </g>
    </g>
    <g id="xtick_7">
     <g id="line2d_7">
      <path d="M 288 302.4 
L 315 302.4 
L 342 302.4 
L 369 302.4 
L 396 302.4 
L 423 302.4 
L 450 302.4 
L 477 302.4 
L 504 302.4 
" clip-path="url(#pa4703080ce)" style="fill: none; stroke: #b0b0b0; stroke-width: 0.8; stroke-linecap: square"/>
     </g>
     <g id="text_7">
      <!-- Sequence  -->
      <g transform="translate(502.844531 290.586188) scale(0.14 -0.14)">
       <use xlink:href="#DejaVuSans-53"/>
       <use xlink:href="#DejaVuSans-65" x="63.476562"/>
       <use xlink:href="#DejaVuSans-71" x="125"/>
       <use xlink:href="#DejaVuSans-75" x="188.476562"/>
       <use xlink:href="#DejaVuSans-65" x="251.855469"/>
       <use xlink:href="#DejaVuSans-6e" x="313.378906"/>
       <use xlink:href="#DejaVuSans-63" x="376.757812"/>
       <use xlink:href="#DejaVuSans-65" x="431.738281"/>
       <use xlink:href="#DejaVuSans-20" x="493.261719"/>
      </g>
      <!--  → Pocket  -->
      <g transform="translate(504.11 306.263125) scale(0.14 -0.14)">
       <defs>
        <path id="DejaVuSans-50" d="M 1259 4147 
L 1259 2394 
L 2053 2394 
Q 2494 2394 2734 2622 
Q 2975 2850 2975 3272 
Q 2975 3691 2734 3919 
Q 2494 4147 2053 4147 
L 1259 4147 
z
M 628 4666 
L 2053 4666 
Q 2838 4666 3239 4311 
Q 3641 3956 3641 3272 
Q 3641 2581 3239 2228 
Q 2838 1875 2053 1875 
L 1259 1875 
L 1259 0 
L 628 0 
L 628 4666 
z
" transform="scale(0.015625)"/>
       </defs>
       <use xlink:href="#DejaVuSans-20"/>
       <use xlink:href="#DejaVuSans-2192" x="31.787109"/>
       <use xlink:href="#DejaVuSans-20" x="115.576172"/>
       <use xlink:href="#DejaVuSans-50" x="147.363281"/>
       <use xlink:href="#DejaVuSans-6f" x="204.041016"/>
       <use xlink:href="#DejaVuSans-63" x="265.222656"/>
       <use xlink:href="#DejaVuSans-6b" x="320.203125"/>
       <use xlink:href="#DejaVuSans-65" x="374.488281"/>
       <use xlink:href="#DejaVuSans-74" x="436.011719"/>
       <use xlink:href="#DejaVuSans-20" x="475.220703"/>
      </g>
      <!--  (MR = 3) -->
      <g transform="translate(506.240625 321.940063) scale(0.14 -0.14)">
       <defs>
        <path id="DejaVuSans-33" d="M 2597 2516 
Q 3050 2419 3304 2112 
Q 3559 1806 3559 1356 
Q 3559 666 3084 287 
Q 2609 -91 1734 -91 
Q 1441 -91 1130 -33 
Q 819 25 488 141 
L 488 750 
Q 750 597 1062 519 
Q 1375 441 1716 441 
Q 2309 441 2620 675 
Q 2931 909 2931 1356 
Q 2931 1769 2642 2001 
Q 2353 2234 1838 2234 
L 1294 2234 
L 1294 2753 
L 1863 2753 
Q 2328 2753 2575 2939 
Q 2822 3125 2822 3475 
Q 2822 3834 2567 4026 
Q 2313 4219 1838 4219 
Q 1578 4219 1281 4162 
Q 984 4106 628 3988 
L 628 4550 
Q 988 4650 1302 4700 
Q 1616 4750 1894 4750 
Q 2613 4750 3031 4423 
Q 3450 4097 3450 3541 
Q 3450 3153 3228 2886 
Q 3006 2619 2597 2516 
z
" transform="scale(0.015625)"/>
       </defs>
       <use xlink:href="#DejaVuSans-20"/>
       <use xlink:href="#DejaVuSans-28" x="31.787109"/>
       <use xlink:href="#DejaVuSans-4d" x="70.800781"/>
       <use xlink:href="#DejaVuSans-52" x="157.080078"/>
       <use xlink:href="#DejaVuSans-20" x="226.5625"/>
       <use xlink:href="#DejaVuSans-3d" x="258.349609"/>
       <use xlink:href="#DejaVuSans-20" x="342.138672"/>
       <use xlink:href="#DejaVuSans-33" x="373.925781"/>
       <use xlink:href="#DejaVuSans-29" x="437.548828"/>
      </g>
     </g>
    </g>
    <g id="xtick_8">
     <g id="line2d_8">
      <path d="M 288 302.4 
L 307.091883 283.308117 
L 326.183766 264.216234 
L 345.275649 245.124351 
L 364.367532 226.032468 
L 383.459415 206.940585 
L 402.551299 187.848701 
L 421.643182 168.756818 
L 440.735065 149.664935 
" clip-path="url(#pa4703080ce)" style="fill: none; stroke: #b0b0b0; stroke-width: 0.8; stroke-linecap: square"/>
     </g>
     <g id="text_8">
      <!-- Pocket →  -->
      <g transform="translate(432.642754 112.678121) scale(0.14 -0.14)">
       <use xlink:href="#DejaVuSans-50"/>
       <use xlink:href="#DejaVuSans-6f" x="56.677734"/>
       <use xlink:href="#DejaVuSans-63" x="117.859375"/>
       <use xlink:href="#DejaVuSans-6b" x="172.839844"/>
       <use xlink:href="#DejaVuSans-65" x="227.125"/>
       <use xlink:href="#DejaVuSans-74" x="288.648438"/>
       <use xlink:href="#DejaVuSans-20" x="327.857422"/>
       <use xlink:href="#DejaVuSans-2192" x="359.644531"/>
       <use xlink:href="#DejaVuSans-20" x="443.433594"/>
      </g>
      <!--  Sequence  -->
      <g transform="translate(426.92791 128.355059) scale(0.14 -0.14)">
       <use xlink:href="#DejaVuSans-20"/>
       <use xlink:href="#DejaVuSans-53" x="31.787109"/>
       <use xlink:href="#DejaVuSans-65" x="95.263672"/>
       <use xlink:href="#DejaVuSans-71" x="156.787109"/>
       <use xlink:href="#DejaVuSans-75" x="220.263672"/>
       <use xlink:href="#DejaVuSans-65" x="283.642578"/>
       <use xlink:href="#DejaVuSans-6e" x="345.166016"/>
       <use xlink:href="#DejaVuSans-63" x="408.544922"/>
       <use xlink:href="#DejaVuSans-65" x="463.525391"/>
       <use xlink:href="#DejaVuSans-20" x="525.048828"/>
      </g>
      <!--  (MR = 4) -->
      <g transform="translate(432.548691 144.031996) scale(0.14 -0.14)">
       <defs>
        <path id="DejaVuSans-34" d="M 2419 4116 
L 825 1625 
L 2419 1625 
L 2419 4116 
z
M 2253 4666 
L 3047 4666 
L 3047 1625 
L 3713 1625 
L 3713 1100 
L 3047 1100 
L 3047 0 
L 2419 0 
L 2419 1100 
L 313 1100 
L 313 1709 
L 2253 4666 
z
" transform="scale(0.015625)"/>
       </defs>
       <use xlink:href="#DejaVuSans-20"/>
       <use xlink:href="#DejaVuSans-28" x="31.787109"/>
       <use xlink:href="#DejaVuSans-4d" x="70.800781"/>
       <use xlink:href="#DejaVuSans-52" x="157.080078"/>
       <use xlink:href="#DejaVuSans-20" x="226.5625"/>
       <use xlink:href="#DejaVuSans-3d" x="258.349609"/>
       <use xlink:href="#DejaVuSans-20" x="342.138672"/>
       <use xlink:href="#DejaVuSans-34" x="373.925781"/>
       <use xlink:href="#DejaVuSans-29" x="437.548828"/>
      </g>
     </g>
    </g>
   </g>
   <g id="matplotlib.axis_2">
    <g id="ytick_1">
     <g id="line2d_9">
      <path d="M 288 259.2 
L 257.452987 271.852987 
L 244.8 302.4 
L 257.452987 332.947013 
L 288 345.6 
L 318.547013 332.947013 
L 331.2 302.4 
L 318.547013 271.852987 
L 288 259.2 
" clip-path="url(#pa4703080ce)" style="fill: none; stroke: #b0b0b0; stroke-width: 0.8; stroke-linecap: square"/>
     </g>
    </g>
    <g id="ytick_2">
     <g id="line2d_10">
      <path d="M 288 216 
L 226.905974 241.305974 
L 201.6 302.4 
L 226.905974 363.494026 
L 288 388.8 
L 349.094026 363.494026 
L 374.4 302.4 
L 349.094026 241.305974 
L 288 216 
" clip-path="url(#pa4703080ce)" style="fill: none; stroke: #b0b0b0; stroke-width: 0.8; stroke-linecap: square"/>
     </g>
    </g>
    <g id="ytick_3">
     <g id="line2d_11">
      <path d="M 288 172.8 
L 196.358961 210.758961 
L 158.4 302.4 
L 196.358961 394.041039 
L 288 432 
L 379.641039 394.041039 
L 417.6 302.4 
L 379.641039 210.758961 
L 288 172.8 
" clip-path="url(#pa4703080ce)" style="fill: none; stroke: #b0b0b0; stroke-width: 0.8; stroke-linecap: square"/>
     </g>
    </g>
    <g id="ytick_4">
     <g id="line2d_12">
      <path d="M 288 129.6 
L 165.811948 180.211948 
L 115.2 302.4 
L 165.811948 424.588052 
L 288 475.2 
L 410.188052 424.588052 
L 460.8 302.4 
L 410.188052 180.211948 
L 288 129.6 
" clip-path="url(#pa4703080ce)" style="fill: none; stroke: #b0b0b0; stroke-width: 0.8; stroke-linecap: square"/>
     </g>
    </g>
    <g id="ytick_5">
     <g id="line2d_13">
      <path d="M 288 86.4 
L 135.264935 149.664935 
L 72 302.4 
L 135.264935 455.135065 
L 288 518.4 
L 440.735065 455.135065 
L 504 302.4 
L 440.735065 149.664935 
L 288 86.4 
" clip-path="url(#pa4703080ce)" style="fill: none; stroke: #b0b0b0; stroke-width: 0.8; stroke-linecap: square"/>
     </g>
    </g>
   </g>
   <g id="line2d_14">
    <path d="M 288 196.56 
L 217.283665 231.683665 
L 245.448 302.4 
L 261.118629 329.281371 
L 288 483.408 
L 412.784548 427.184548 
L 357.336 302.4 
L 330.460348 259.939652 
L 288 196.56 
" clip-path="url(#pa4703080ce)" style="fill: none; stroke: #1f77b4; stroke-width: 1.5; stroke-linecap: square"/>
   </g>
   <g id="line2d_15">
    <path d="M 288 106.272 
L 150.232972 164.632972 
L 161.208 302.4 
L 202.315629 388.084371 
L 288 517.104 
L 439.360449 453.760449 
L 446.976 302.4 
L 397.969247 192.430753 
L 288 106.272 
" clip-path="url(#pa4703080ce)" style="fill: none; stroke: #ff7f0e; stroke-width: 1.5; stroke-linecap: square"/>
   </g>
   <g id="line2d_16">
    <path d="M 288 89.424 
L 137.097756 151.497756 
L 94.032 302.4 
L 152.065792 438.334208 
L 288 518.4 
L 440.735065 455.135065 
L 490.824 302.4 
L 430.960021 159.439979 
L 288 89.424 
" clip-path="url(#pa4703080ce)" style="fill: none; stroke: #2ca02c; stroke-width: 1.5; stroke-linecap: square"/>
   </g>
   <g id="patch_6">
    <path d="M 288 86.4 
L 135.264935 149.664935 
L 72 302.4 
L 135.264935 455.135065 
L 288 518.4 
L 440.735065 455.135065 
L 504 302.4 
L 440.735065 149.664935 
L 288 86.4 
z
" style="fill: none; stroke: #000000; stroke-width: 0.8; stroke-linejoin: miter; stroke-linecap: square"/>
   </g>
   <g id="text_9">
    <!-- Modality ↔ Sequence -->
    <g transform="translate(181.315625 22.348375) scale(0.2 -0.2)">
     <defs>
      <path id="DejaVuSans-64" d="M 2906 2969 
L 2906 4863 
L 3481 4863 
L 3481 0 
L 2906 0 
L 2906 525 
Q 2725 213 2448 61 
Q 2172 -91 1784 -91 
Q 1150 -91 751 415 
Q 353 922 353 1747 
Q 353 2572 751 3078 
Q 1150 3584 1784 3584 
Q 2172 3584 2448 3432 
Q 2725 3281 2906 2969 
z
M 947 1747 
Q 947 1113 1208 752 
Q 1469 391 1925 391 
Q 2381 391 2643 752 
Q 2906 1113 2906 1747 
Q 2906 2381 2643 2742 
Q 2381 3103 1925 3103 
Q 1469 3103 1208 2742 
Q 947 2381 947 1747 
z
" transform="scale(0.015625)"/>
      <path id="DejaVuSans-6c" d="M 603 4863 
L 1178 4863 
L 1178 0 
L 603 0 
L 603 4863 
z
" transform="scale(0.015625)"/>
      <path id="DejaVuSans-69" d="M 603 3500 
L 1178 3500 
L 1178 0 
L 603 0 
L 603 3500 
z
M 603 4863 
L 1178 4863 
L 1178 4134 
L 603 4134 
L 603 4863 
z
" transform="scale(0.015625)"/>
      <path id="DejaVuSans-79" d="M 2059 -325 
Q 1816 -950 1584 -1140 
Q 1353 -1331 966 -1331 
L 506 -1331 
L 506 -850 
L 844 -850 
Q 1081 -850 1212 -737 
Q 1344 -625 1503 -206 
L 1606 56 
L 191 3500 
L 800 3500 
L 1894 763 
L 2988 3500 
L 3597 3500 
L 2059 -325 
z
" transform="scale(0.015625)"/>
      <path id="DejaVuSans-2194" d="M 313 1866 
L 313 2147 
L 1541 3375 
L 1916 3000 
L 1188 2272 
L 4175 2272 
L 3447 3000 
L 3822 3375 
L 5050 2147 
L 5050 1866 
L 3822 638 
L 3447 1013 
L 4175 1741 
L 1188 1741 
L 1916 1013 
L 1541 638 
L 313 1866 
z
" transform="scale(0.015625)"/>
     </defs>
     <use xlink:href="#DejaVuSans-4d"/>
     <use xlink:href="#DejaVuSans-6f" x="86.279297"/>
     <use xlink:href="#DejaVuSans-64" x="147.460938"/>
     <use xlink:href="#DejaVuSans-61" x="210.9375"/>
     <use xlink:href="#DejaVuSans-6c" x="272.216797"/>
     <use xlink:href="#DejaVuSans-69" x="300"/>
     <use xlink:href="#DejaVuSans-74" x="327.783203"/>
     <use xlink:href="#DejaVuSans-79" x="366.992188"/>
     <use xlink:href="#DejaVuSans-20" x="426.171875"/>
     <use xlink:href="#DejaVuSans-2194" x="457.958984"/>
     <use xlink:href="#DejaVuSans-20" x="541.748047"/>
     <use xlink:href="#DejaVuSans-53" x="573.535156"/>
     <use xlink:href="#DejaVuSans-65" x="637.011719"/>
     <use xlink:href="#DejaVuSans-71" x="698.535156"/>
     <use xlink:href="#DejaVuSans-75" x="762.011719"/>
     <use xlink:href="#DejaVuSans-65" x="825.390625"/>
     <use xlink:href="#DejaVuSans-6e" x="886.914062"/>
     <use xlink:href="#DejaVuSans-63" x="950.292969"/>
     <use xlink:href="#DejaVuSans-65" x="1005.273438"/>
    </g>
   </g>
   <g id="legend_1">
    <g id="patch_7">
     <path d="M 448.7425 83.255 
L 557.6 83.255 
Q 560.8 83.255 560.8 80.055 
L 560.8 11.2 
Q 560.8 8 557.6 8 
L 448.7425 8 
Q 445.5425 8 445.5425 11.2 
L 445.5425 80.055 
Q 445.5425 83.255 448.7425 83.255 
z
" style="fill: #ffffff; opacity: 0.8; stroke: #cccccc; stroke-linejoin: miter"/>
    </g>
    <g id="patch_8">
     <path d="M 451.9425 26.5575 
L 483.9425 26.5575 
L 483.9425 15.3575 
L 451.9425 15.3575 
z
" style="fill: #1f77b4; opacity: 0.25"/>
    </g>
    <g id="text_10">
     <!-- R@1 -->
     <g transform="translate(496.7425 26.5575) scale(0.16 -0.16)">
      <defs>
       <path id="DejaVuSans-40" d="M 2381 1678 
Q 2381 1231 2603 976 
Q 2825 722 3213 722 
Q 3597 722 3817 978 
Q 4038 1234 4038 1678 
Q 4038 2116 3813 2373 
Q 3588 2631 3206 2631 
Q 2828 2631 2604 2375 
Q 2381 2119 2381 1678 
z
M 4084 744 
Q 3897 503 3655 389 
Q 3413 275 3091 275 
Q 2553 275 2217 664 
Q 1881 1053 1881 1678 
Q 1881 2303 2218 2693 
Q 2556 3084 3091 3084 
Q 3413 3084 3656 2967 
Q 3900 2850 4084 2613 
L 4084 3022 
L 4531 3022 
L 4531 722 
Q 4988 791 5245 1139 
Q 5503 1488 5503 2041 
Q 5503 2375 5404 2669 
Q 5306 2963 5106 3213 
Q 4781 3622 4314 3839 
Q 3847 4056 3297 4056 
Q 2913 4056 2559 3954 
Q 2206 3853 1906 3653 
Q 1416 3334 1139 2817 
Q 863 2300 863 1697 
Q 863 1200 1042 765 
Q 1222 331 1563 0 
Q 1891 -325 2322 -495 
Q 2753 -666 3244 -666 
Q 3647 -666 4036 -530 
Q 4425 -394 4750 -141 
L 5031 -488 
Q 4641 -791 4180 -952 
Q 3719 -1113 3244 -1113 
Q 2666 -1113 2153 -908 
Q 1641 -703 1241 -313 
Q 841 78 631 592 
Q 422 1106 422 1697 
Q 422 2266 634 2781 
Q 847 3297 1241 3688 
Q 1644 4084 2172 4295 
Q 2700 4506 3291 4506 
Q 3953 4506 4520 4234 
Q 5088 3963 5472 3463 
Q 5706 3156 5829 2797 
Q 5953 2438 5953 2053 
Q 5953 1231 5456 756 
Q 4959 281 4084 263 
L 4084 744 
z
" transform="scale(0.015625)"/>
      </defs>
      <use xlink:href="#DejaVuSans-52"/>
      <use xlink:href="#DejaVuSans-40" x="69.482422"/>
      <use xlink:href="#DejaVuSans-31" x="169.482422"/>
     </g>
    </g>
    <g id="patch_9">
     <path d="M 451.9425 50.0425 
L 483.9425 50.0425 
L 483.9425 38.8425 
L 451.9425 38.8425 
z
" style="fill: #ff7f0e; opacity: 0.25"/>
    </g>
    <g id="text_11">
     <!-- R@10 -->
     <g transform="translate(496.7425 50.0425) scale(0.16 -0.16)">
      <defs>
       <path id="DejaVuSans-30" d="M 2034 4250 
Q 1547 4250 1301 3770 
Q 1056 3291 1056 2328 
Q 1056 1369 1301 889 
Q 1547 409 2034 409 
Q 2525 409 2770 889 
Q 3016 1369 3016 2328 
Q 3016 3291 2770 3770 
Q 2525 4250 2034 4250 
z
M 2034 4750 
Q 2819 4750 3233 4129 
Q 3647 3509 3647 2328 
Q 3647 1150 3233 529 
Q 2819 -91 2034 -91 
Q 1250 -91 836 529 
Q 422 1150 422 2328 
Q 422 3509 836 4129 
Q 1250 4750 2034 4750 
z
" transform="scale(0.015625)"/>
      </defs>
      <use xlink:href="#DejaVuSans-52"/>
      <use xlink:href="#DejaVuSans-40" x="69.482422"/>
      <use xlink:href="#DejaVuSans-31" x="169.482422"/>
      <use xlink:href="#DejaVuSans-30" x="233.105469"/>
     </g>
    </g>
    <g id="patch_10">
     <path d="M 451.9425 73.5275 
L 483.9425 73.5275 
L 483.9425 62.3275 
L 451.9425 62.3275 
z
" style="fill: #2ca02c; opacity: 0.25"/>
    </g>
    <g id="text_12">
     <!-- R@100 -->
     <g transform="translate(496.7425 73.5275) scale(0.16 -0.16)">
      <use xlink:href="#DejaVuSans-52"/>
      <use xlink:href="#DejaVuSans-40" x="69.482422"/>
      <use xlink:href="#DejaVuSans-31" x="169.482422"/>
      <use xlink:href="#DejaVuSans-30" x="233.105469"/>
      <use xlink:href="#DejaVuSans-30" x="296.728516"/>
     </g>
    </g>
   </g>
  </g>
 </g>
 <defs>
  <clipPath id="pa4703080ce">
   <path d="M 288 86.4 
L 135.264935 149.664935 
L 72 302.4 
L 135.264935 455.135065 
L 288 518.4 
L 440.735065 455.135065 
L 504 302.4 
L 440.735065 149.664935 
z
"/>
  </clipPath>
 </defs>
</svg>
